<svg width="34" height="34" viewBox="0 0 34 34" fill="none" xmlns="http://www.w3.org/2000/svg">
<path d="M30.3335 16.9998C30.3335 24.3498 24.3502 30.3332 17.0002 30.3332C9.65016 30.3332 3.66683 24.3498 3.66683 16.9998C3.66683 9.64984 9.65016 3.6665 17.0002 3.6665C24.3502 3.6665 30.3335 9.64983 30.3335 16.9998ZM33.6668 16.9998C33.6668 7.79983 26.2002 0.333167 17.0002 0.333167C7.80016 0.333168 0.333495 7.79984 0.333495 16.9998C0.333496 26.1998 7.80016 33.6665 17.0002 33.6665C26.2002 33.6665 33.6668 26.1998 33.6668 16.9998ZM17.0002 18.6665L23.6668 18.6665L23.6668 15.3332L17.0002 15.3332L17.0002 10.3332L10.3335 16.9998L17.0002 23.6665L17.0002 18.6665Z" fill="#CC3333"/>
</svg>
