<svg width="20" height="20" viewBox="0 0 20 20" fill="none" xmlns="http://www.w3.org/2000/svg">
<path d="M4.02222 8.65556C5.62222 11.8 8.2 14.3667 11.3444 15.9778L13.7889 13.5333C14.0889 13.2333 14.5333 13.1333 14.9222 13.2667C16.1667 13.6778 17.5111 13.9 18.8889 13.9C19.5 13.9 20 14.4 20 15.0111V18.8889C20 19.5 19.5 20 18.8889 20C8.45556 20 0 11.5444 0 1.11111C0 0.5 0.5 0 1.11111 0H5C5.61111 0 6.11111 0.5 6.11111 1.11111C6.11111 2.5 6.33333 3.83333 6.74444 5.07778C6.86667 5.46667 6.77778 5.9 6.46667 6.21111L4.02222 8.65556Z" fill="#FFF8EE"/>
</svg>
