<svg width="34" height="34" viewBox="0 0 34 34" fill="none" xmlns="http://www.w3.org/2000/svg">
<path d="M3.6665 17.0002C3.6665 9.65016 9.64984 3.66683 16.9998 3.66683C24.3498 3.66683 30.3332 9.65016 30.3332 17.0002C30.3332 24.3502 24.3498 30.3335 16.9998 30.3335C9.64983 30.3335 3.6665 24.3502 3.6665 17.0002ZM0.333167 17.0002C0.333167 26.2002 7.79983 33.6668 16.9998 33.6668C26.1998 33.6668 33.6665 26.2002 33.6665 17.0002C33.6665 7.80016 26.1998 0.333496 16.9998 0.333495C7.79984 0.333495 0.333168 7.80016 0.333167 17.0002ZM16.9998 15.3335L10.3332 15.3335L10.3332 18.6668L16.9998 18.6668L16.9998 23.6668L23.6665 17.0002L16.9998 10.3335L16.9998 15.3335Z" fill="#CC3333"/>
</svg>
