<svg width="34" height="34" viewBox="0 0 34 34" fill="none" xmlns="http://www.w3.org/2000/svg">
<path d="M3.66667 17.0002C3.66667 9.65016 9.65 3.66683 17 3.66683C24.35 3.66683 30.3333 9.65016 30.3333 17.0002C30.3333 24.3502 24.35 30.3335 17 30.3335C9.65 30.3335 3.66667 24.3502 3.66667 17.0002ZM0.333335 17.0002C0.333335 26.2002 7.8 33.6668 17 33.6668C26.2 33.6668 33.6667 26.2002 33.6667 17.0002C33.6667 7.80016 26.2 0.333496 17 0.333495C7.8 0.333495 0.333336 7.80016 0.333335 17.0002ZM17 15.3335L10.3333 15.3335L10.3333 18.6668L17 18.6668L17 23.6668L23.6667 17.0002L17 10.3335L17 15.3335Z" fill="#FFF8EE"/>
</svg>
