<svg width="17" height="17" viewBox="0 0 17 17" fill="none" xmlns="http://www.w3.org/2000/svg">
<path d="M1.66643 8.33333C1.66643 4.65833 4.65809 1.66667 8.33309 1.66667C12.0081 1.66667 14.9998 4.65833 14.9998 8.33333C14.9998 12.0083 12.0081 15 8.33309 15C4.65809 15 1.66643 12.0083 1.66643 8.33333ZM-0.00024069 8.33333C-0.000240891 12.9333 3.73309 16.6667 8.33309 16.6667C12.9331 16.6667 16.6664 12.9333 16.6664 8.33333C16.6664 3.73333 12.9331 -1.63189e-07 8.33309 -3.64262e-07C3.73309 -5.65334e-07 -0.000240489 3.73333 -0.00024069 8.33333ZM8.33309 7.5L4.99976 7.5L4.99976 9.16667L8.33309 9.16667L8.33309 11.6667L11.6664 8.33333L8.33309 5L8.33309 7.5Z" fill="#FFF8EE"/>
</svg>
